<svg xmlns="http://www.w3.org/2000/svg" viewBox="0 0 50 50" enable-background="new 0 0 50 50"><path fill="#5FA9DD" d="M49.7 9.5c-1.8.8-3.9 1.3-5.9 1.6 2.1-1.3 3.8-3.3 4.5-5.7-2 1.2-4.2 2-6.5 2.5-1.8-2-4.5-3.3-7.5-3.3-5.7 0-10.2 4.6-10.2 10.2 0 .8.1 1.6.3 2.3-8.5-.3-16.1-4.3-21.2-10.6-.8 1.5-1.4 3.3-1.4 5.1 0 3.6 1.8 6.7 4.6 8.6-1.7-.1-3.3-.5-4.6-1.3v.2c0 4.9 3.5 9.1 8.2 10.1-.8.3-1.8.3-2.7.3-.7 0-1.3-.1-1.9-.2 1.3 4.1 5.1 7 9.6 7.1-3.5 2.8-8 4.4-12.8 4.4-.8 0-1.7-.1-2.4-.2 4.5 2.9 9.9 4.6 15.8 4.6 18.9 0 29.2-15.6 29.2-29.2v-1.3c1.8-1.4 3.5-3.2 4.9-5.2z"/></svg>